<?xml version="1.0" standalone="no"?>
<!DOCTYPE svg PUBLIC "-//W3C//DTD SVG 20010904//EN"
 "http://www.w3.org/TR/2001/REC-SVG-20010904/DTD/svg10.dtd">
<svg version="1.0" xmlns="http://www.w3.org/2000/svg"
 width="1170.000000pt" height="582.000000pt" viewBox="0 0 1170.000000 582.000000"
 preserveAspectRatio="xMidYMid meet">

<g transform="translate(0.000000,582.000000) scale(0.100000,-0.100000)"
fill="#000000" stroke="none">
<path d="M0 2910 l0 -2910 5850 0 5850 0 0 2910 0 2910 -5850 0 -5850 0 0
-2910z m8753 2883 c-1596 -2 -4210 -2 -5810 0 -1599 1 -294 2 2902 2 3196 0
4504 -1 2908 -2z m-3343 -2297 c0 -18 3 -54 6 -80 9 -60 -14 -63 -38 -6 -21
51 -63 70 -153 70 l-66 0 3 -87 3 -88 40 -3 c50 -3 87 16 95 47 3 14 11 26 18
29 9 3 12 -21 12 -93 0 -73 -3 -96 -12 -93 -7 3 -15 13 -17 24 -6 36 -22 44
-82 44 l-59 0 0 -96 0 -96 88 4 c113 6 142 24 154 102 2 11 9 21 16 24 9 3 12
-19 12 -88 0 -91 0 -92 -22 -86 -13 3 -107 6 -210 6 -179 0 -188 1 -188 19 0
13 8 21 23 23 22 3 22 3 22 203 0 200 0 200 -22 203 -15 2 -23 10 -23 22 0 18
11 20 188 23 103 1 193 3 200 5 7 1 12 -10 12 -32z m910 -8 c0 -24 3 -60 6
-80 9 -51 -20 -53 -36 -2 -18 53 -59 74 -148 74 l-73 0 3 -87 3 -88 51 0 c58
1 84 16 84 51 0 15 6 24 15 24 12 0 15 -17 15 -96 0 -72 -3 -95 -12 -92 -7 3
-15 13 -17 24 -6 36 -22 44 -82 44 l-59 0 0 -96 0 -96 88 4 c114 6 141 24 154
103 2 11 10 20 17 20 11 0 14 -18 12 -85 -1 -47 -3 -85 -4 -85 -1 0 -95 1
-209 3 -196 3 -208 4 -208 22 0 12 8 20 23 22 22 3 22 4 25 201 l2 197 -25 10
c-14 5 -25 16 -25 25 0 12 29 15 188 18 103 1 193 3 200 5 8 1 12 -12 12 -40z
m433 28 c32 -8 67 -11 78 -9 16 5 19 0 20 -33 0 -22 3 -58 5 -81 7 -58 -15
-57 -39 1 -21 50 -44 69 -107 86 -93 25 -182 -32 -196 -126 -24 -165 46 -288
165 -288 77 0 134 49 150 128 4 16 12 31 19 34 9 3 12 -21 12 -93 l0 -97 -25
6 c-14 4 -53 -1 -87 -10 -69 -17 -147 -13 -208 13 -151 62 -186 282 -64 406
71 72 156 91 277 63z m601 -11 c3 -11 6 -46 6 -77 0 -43 -4 -58 -14 -58 -8 0
-17 15 -20 35 -8 42 -53 75 -103 75 l-33 0 0 -193 c0 -208 2 -217 52 -217 21
0 28 -5 28 -20 0 -19 -7 -20 -131 -20 -119 0 -130 2 -127 18 2 11 15 19 38 22
l35 5 3 203 2 202 -34 0 c-43 0 -92 -39 -101 -80 -7 -33 -35 -42 -35 -11 0 10
3 45 6 77 l6 59 209 0 c200 0 208 -1 213 -20z m966 -5 c162 -83 169 -342 12
-436 -128 -77 -293 -40 -359 80 -23 43 -27 63 -28 126 0 64 4 82 29 127 30 55
90 105 147 122 47 14 153 4 199 -19z m-2602 3 c-2 -11 -14 -19 -33 -21 -16 -2
-33 -9 -37 -15 -4 -7 -8 -99 -8 -204 l0 -193 54 0 c91 0 138 30 151 97 3 20
11 33 18 30 8 -3 11 -29 8 -88 -2 -46 -4 -84 -5 -84 0 0 -85 1 -188 3 -176 3
-188 4 -188 22 0 12 8 20 23 22 22 3 22 3 22 203 0 200 0 200 -22 203 -15 2
-23 10 -23 23 0 18 8 19 116 19 105 0 115 -2 112 -17z m2036 6 c22 -6 52 -24
68 -39 23 -24 28 -37 28 -78 0 -43 -5 -54 -32 -81 -17 -17 -47 -34 -65 -37
-18 -3 -33 -10 -33 -15 0 -15 132 -180 149 -187 20 -7 31 -23 25 -34 -3 -4
-36 -8 -73 -8 -67 0 -69 1 -74 28 -3 15 -34 66 -68 115 -53 74 -66 87 -91 87
l-28 0 0 -79 c0 -96 5 -111 36 -111 17 0 24 -6 24 -20 0 -19 -7 -20 -105 -20
-97 0 -105 1 -105 19 0 13 8 21 23 23 22 3 22 3 22 203 0 200 0 200 -22 203
-15 2 -23 10 -23 23 0 18 8 19 153 19 83 0 170 -5 191 -11z m-3094 -673 c0
-399 -4 -617 -10 -621 -7 -4 -10 203 -10 614 0 407 3 621 10 621 7 0 10 -211
10 -614z m-945 317 c-9 -129 -14 -238 -11 -240 3 -3 75 -5 161 -5 85 1 155 -1
155 -3 0 -8 -370 -745 -373 -745 -2 0 -2 12 0 28 3 31 33 472 33 496 0 14 -20
16 -160 16 -88 0 -160 2 -160 5 0 3 82 169 183 370 136 273 183 359 185 340 2
-15 -4 -132 -13 -262z m362 158 c100 -80 161 -166 209 -291 25 -68 28 -87 29
-205 0 -153 -20 -231 -90 -342 l-42 -68 55 -31 55 -31 -57 -7 c-31 -4 -89 -16
-128 -27 -39 -11 -72 -18 -75 -16 -2 2 9 33 25 68 16 35 35 88 42 117 8 28 16
52 20 52 3 0 12 -19 20 -42 9 -24 21 -43 30 -43 25 0 98 161 116 258 33 171
-14 358 -124 489 -42 50 -128 128 -142 128 -4 0 -10 7 -14 15 -10 27 21 16 71
-24z m-757 -38 c-16 -34 -37 -89 -46 -122 -10 -33 -21 -58 -25 -55 -5 3 -14
23 -20 44 -7 22 -17 40 -23 40 -15 0 -69 -89 -94 -155 -27 -70 -45 -197 -37
-264 22 -183 93 -314 231 -429 70 -58 74 -81 7 -39 -54 34 -146 136 -181 202
-64 118 -76 167 -76 315 0 117 3 144 23 199 24 66 84 175 101 186 19 12 10 22
-46 51 l-55 29 73 12 c41 7 101 21 134 31 32 10 60 18 61 17 1 0 -11 -28 -27
-62z m2057 -597 c36 -10 54 -11 62 -3 18 18 24 0 29 -83 4 -68 2 -80 -11 -80
-9 0 -20 15 -27 34 -20 61 -77 98 -151 98 -64 0 -108 -26 -137 -82 -47 -90
-13 -265 60 -310 46 -28 126 -27 162 1 24 19 27 27 24 78 -3 56 -3 56 -38 61
-23 3 -36 11 -38 23 -3 15 7 17 107 17 102 0 111 -2 111 -19 0 -10 -9 -21 -20
-24 -18 -5 -20 -14 -20 -100 0 -99 -11 -127 -36 -92 -13 18 -16 18 -90 1 -213
-51 -367 64 -351 260 14 174 174 271 364 220z m1094 -17 c147 -74 174 -283 53
-403 -130 -131 -364 -82 -420 86 -20 61 -15 158 10 206 27 52 94 111 145 127
60 20 157 12 212 -16z m-536 2 c59 -27 80 -55 80 -106 0 -59 -29 -96 -88 -115
-26 -8 -47 -18 -47 -21 0 -14 134 -175 156 -187 13 -7 24 -19 24 -27 0 -12
-16 -15 -75 -15 -66 0 -75 2 -75 18 0 10 -30 62 -67 115 -58 81 -72 96 -95 97
l-28 0 0 -79 c0 -96 5 -111 36 -111 17 0 24 -6 24 -20 0 -19 -7 -20 -105 -20
-98 0 -105 1 -105 20 0 13 7 20 19 20 10 0 22 7 25 16 3 9 6 94 6 189 0 95 -3
180 -6 189 -3 9 -15 16 -25 16 -12 0 -19 7 -19 20 0 19 7 20 163 20 136 0 168
-3 202 -19z m935 -1 c0 -16 -7 -20 -30 -20 -42 0 -50 -27 -50 -158 0 -126 12
-175 50 -214 24 -23 37 -28 79 -28 42 0 56 5 83 29 l33 29 0 169 0 168 -42 3
c-35 3 -43 7 -43 23 0 17 8 19 95 19 87 0 95 -2 95 -19 0 -13 -8 -21 -22 -23
-22 -3 -23 -7 -29 -163 -5 -137 -9 -166 -27 -201 -67 -131 -291 -120 -350 16
-11 24 -17 83 -21 190 -6 151 -7 155 -28 158 -15 2 -23 10 -23 23 0 18 8 19
115 19 108 0 115 -1 115 -20z m664 4 c57 -20 86 -60 86 -119 0 -91 -62 -135
-202 -143 l-88 -5 0 -71 c0 -79 9 -96 52 -96 21 0 28 -5 28 -20 0 -20 -5 -21
-117 -18 -97 2 -118 6 -118 18 0 8 9 16 20 19 11 2 23 8 27 15 9 13 11 358 2
380 -3 9 -14 16 -24 16 -10 0 -20 9 -23 20 -5 19 0 20 152 20 119 0 169 -4
205 -16z m4106 -2554 c10 -6 -2056 -10 -5792 -10 -3868 0 -5808 3 -5808 10 0
14 11579 14 11600 0z"/>
<path d="M8148 3476 c-20 -7 -44 -20 -53 -29 -50 -50 -61 -208 -21 -294 53
-112 178 -118 241 -12 30 51 29 207 -2 265 -36 68 -98 94 -165 70z"/>
<path d="M7567 3473 c-4 -3 -7 -41 -7 -84 0 -91 6 -96 96 -84 66 8 94 33 94
84 -1 43 -17 66 -54 81 -30 11 -119 14 -129 3z"/>
<path d="M6255 2607 c-42 -42 -58 -102 -53 -193 8 -121 60 -184 151 -184 66 0
100 32 122 115 30 111 1 240 -64 278 -16 9 -50 17 -76 17 -40 0 -52 -5 -80
-33z"/>
<path d="M5728 2634 c-5 -4 -8 -42 -8 -85 l0 -77 34 -6 c43 -8 112 7 137 30
29 26 23 91 -12 116 -27 20 -138 37 -151 22z"/>
<path d="M7338 2634 c-5 -4 -8 -47 -8 -96 l0 -88 64 0 c48 0 69 5 89 20 47 37
44 112 -7 145 -27 18 -127 32 -138 19z"/>
</g>
</svg>
